<?xml version="1.0" standalone="no"?>
<!DOCTYPE svg PUBLIC "-//W3C//DTD SVG 20010904//EN"
 "http://www.w3.org/TR/2001/REC-SVG-20010904/DTD/svg10.dtd">
<svg version="1.0" xmlns="http://www.w3.org/2000/svg"
 width="1024.000000pt" height="1024.000000pt" viewBox="0 0 1024.000000 1024.000000"
 preserveAspectRatio="xMidYMid meet">
<metadata>
Created by potrace 1.16, written by Peter Selinger 2001-2019
</metadata>
<g transform="translate(0.000000,1024.000000) scale(0.100000,-0.100000)"
fill="#000000" stroke="none">
<path d="M0 5120 l0 -5120 5120 0 5120 0 0 5120 0 5120 -5120 0 -5120 0 0
-5120z m5171 4192 c30 -75 37 -85 74 -101 57 -26 80 -55 80 -103 0 -33 -7 -46
-38 -74 -27 -25 -46 -34 -72 -34 -41 0 -41 1 -15 -105 28 -111 63 -164 123
-189 42 -18 53 -19 93 -8 55 15 124 60 149 98 17 26 16 28 -4 64 -44 79 -12
150 69 150 48 0 90 -37 90 -79 0 -30 -33 -89 -55 -97 -23 -9 -20 -111 5 -151
70 -115 247 -93 316 40 14 27 14 30 -15 63 -41 47 -43 104 -5 139 16 15 39 25
56 25 16 0 44 11 62 25 38 29 108 60 154 69 38 7 39 4 12 -32 -27 -36 -197
-402 -245 -527 -21 -55 -41 -103 -45 -107 -3 -4 -46 6 -95 21 -381 123 -850
145 -1244 60 -84 -18 -256 -66 -303 -84 -11 -5 -18 0 -23 17 -29 92 -247 559
-289 620 -24 33 -20 37 25 27 45 -10 88 -30 133 -62 16 -11 41 -22 55 -23 85
-9 116 -85 65 -159 -29 -43 -24 -69 22 -118 119 -128 305 -68 304 98 -1 45 -4
52 -32 70 -80 51 -51 165 42 165 79 0 114 -76 70 -148 -17 -28 -19 -37 -8 -50
51 -69 103 -104 170 -117 28 -5 50 -1 91 18 79 36 118 110 129 242 3 37 1 40
-27 45 -64 14 -105 57 -105 112 0 38 35 85 72 97 31 10 38 20 73 107 21 52 42
91 45 87 4 -4 22 -45 41 -91z m153 -912 c61 -6 167 -22 237 -36 122 -23 334
-86 353 -104 9 -9 -11 -70 -24 -70 -4 0 -51 13 -106 30 -241 73 -486 105 -739
97 -202 -7 -311 -21 -533 -73 -85 -20 -155 -34 -157 -32 -1 2 -5 13 -9 24 -6
19 3 25 94 58 274 98 579 135 884 106z m-1284 -57 c5 -21 13 -54 16 -75 l6
-36 -273 -90 c-245 -81 -436 -137 -686 -203 l-83 -21 0 -904 c0 -745 3 -923
15 -1017 85 -652 483 -1230 1154 -1681 207 -139 550 -324 823 -445 l118 -52
72 32 c120 52 434 210 573 289 872 491 1366 1135 1445 1881 5 54 10 474 10
994 l0 900 -208 56 c-114 31 -348 103 -520 159 -245 80 -312 105 -312 118 0
18 26 122 32 128 2 2 121 -35 263 -82 259 -85 568 -175 783 -229 l112 -29 0
-986 c0 -627 -4 -1016 -10 -1070 -50 -401 -208 -775 -468 -1109 -147 -188
-422 -448 -632 -597 -207 -147 -540 -338 -844 -484 -239 -115 -289 -134 -323
-125 -44 11 -438 199 -609 292 -167 90 -415 243 -529 327 -129 95 -299 243
-405 352 -209 217 -338 400 -466 659 -95 195 -150 352 -191 545 l-28 135 -3
1031 -3 1031 183 48 c286 75 535 148 758 224 113 38 208 70 212 70 4 1 12 -16
18 -36z m1185 -242 c55 -12 105 -21 110 -21 6 0 3 -5 -5 -10 -8 -5 -46 -10
-83 -10 -153 0 -328 -41 -472 -110 -90 -43 -178 -101 -133 -86 151 48 388 53
587 12 150 -30 234 -59 331 -113 109 -61 190 -123 290 -223 87 -86 226 -257
217 -266 -2 -2 -46 21 -98 53 -116 69 -321 174 -390 199 -48 17 -53 23 -85 86
-41 82 -84 132 -138 161 -38 20 -54 22 -201 21 -268 -2 -429 -53 -561 -177
-73 -67 -194 -237 -194 -271 0 -2 46 -4 103 -3 88 1 113 -3 182 -27 172 -60
337 -159 463 -281 l73 -70 -72 -128 -73 -129 -14 29 c-93 178 -282 364 -435
428 l-37 15 44 -57 c38 -52 136 -214 136 -228 0 -2 -25 11 -55 30 -85 55 -89
55 -58 -6 56 -111 24 -230 -96 -350 -47 -47 -88 -76 -143 -102 -42 -20 -79
-37 -81 -37 -3 0 7 26 23 58 15 31 30 81 33 110 l6 53 -25 -20 c-37 -29 -106
-48 -219 -61 -77 -8 -104 -15 -122 -32 -29 -27 -213 -81 -281 -82 -28 -1 -52
-4 -52 -7 0 -14 81 -23 195 -21 81 2 129 -2 149 -11 28 -12 24 -14 -76 -26
-57 -7 -120 -10 -139 -6 -102 21 102 -58 216 -84 32 -7 16 -9 -80 -9 -66 -1
-150 2 -188 7 -91 10 -72 -1 46 -27 89 -20 267 -91 267 -107 0 -4 -8 -4 -17 0
-36 13 -385 76 -416 74 -7 0 22 -11 64 -23 130 -39 211 -88 194 -117 -6 -8
-32 -10 -89 -6 -94 6 -284 68 -351 114 -74 52 -104 158 -72 253 10 29 20 38
61 51 44 15 53 23 77 70 16 30 28 57 29 60 0 4 -19 0 -42 -9 -46 -17 -289 -24
-304 -9 -30 29 157 227 311 328 55 37 119 76 143 88 l43 22 -26 33 c-15 20
-25 46 -25 66 0 59 117 156 385 320 36 22 67 40 70 40 2 0 -2 -19 -10 -41 -8
-23 -15 -45 -15 -50 0 -4 31 16 70 44 84 64 180 113 249 128 28 6 51 13 51 16
0 3 -57 3 -126 0 l-126 -6 7 27 c3 15 26 69 51 119 100 207 280 326 559 367
66 10 294 -4 390 -23z m-835 -18 c-29 -14 -81 -54 -115 -87 -73 -72 -134 -187
-163 -310 l-18 -78 -55 -23 c-31 -12 -68 -30 -84 -41 l-28 -18 7 83 c22 254
145 406 386 478 107 31 138 30 70 -4z m1590 -351 c122 -79 245 -187 330 -292
41 -50 76 -94 78 -98 1 -5 -62 24 -141 63 -117 57 -149 77 -172 109 -39 54
-255 275 -304 311 -22 17 -41 33 -41 38 0 12 157 -70 250 -131z m-715 -62 c57
-35 80 -89 80 -191 0 -78 -3 -91 -37 -160 -20 -41 -50 -87 -67 -103 l-30 -29
20 52 c25 67 35 183 20 238 -16 58 -50 83 -115 83 -66 0 -159 -43 -225 -105
l-48 -45 -84 8 -84 8 75 75 c90 91 163 140 262 174 90 32 177 30 233 -5z
m1075 -580 c165 -40 364 -158 476 -283 103 -114 181 -260 225 -417 21 -75 24
-106 23 -255 -1 -199 -16 -272 -90 -424 -57 -120 -113 -198 -205 -287 -419
-405 -1084 -350 -1443 119 -140 184 -206 400 -193 641 25 481 358 851 833 926
88 14 276 4 374 -20z m-1429 -563 c26 -50 33 -76 37 -138 2 -43 -1 -101 -8
-131 -14 -61 -73 -193 -124 -276 -95 -158 -168 -334 -202 -492 -18 -86 -22
-321 -6 -360 6 -14 11 -20 11 -13 1 20 96 220 167 353 37 69 91 170 120 225
l54 100 0 -45 c1 -69 17 -167 43 -256 l23 -81 -29 -34 c-41 -48 -132 -205
-166 -286 -67 -158 -92 -288 -92 -473 l0 -125 -25 40 c-180 289 -275 650 -262
995 4 99 11 151 26 195 11 33 19 61 17 63 -2 2 -32 -34 -66 -80 -67 -90 -117
-189 -144 -283 -24 -85 -31 -344 -12 -450 8 -44 13 -82 11 -84 -7 -8 -113 226
-131 289 -12 46 -17 99 -17 180 2 198 53 305 258 538 210 239 250 299 292 442
l22 75 7 -46 c4 -25 5 -78 3 -117 -1 -40 -1 -72 0 -72 12 0 48 55 80 120 36
72 37 79 37 180 0 58 -4 119 -8 135 l-9 30 30 -29 c17 -15 45 -56 63 -89z
m-1603 -84 c31 -44 92 -171 92 -191 0 -10 -8 -26 -18 -36 -18 -15 -20 -15 -34
1 -28 32 -59 103 -79 180 -10 42 -19 80 -19 85 0 15 38 -11 58 -39z m227 -368
c133 -54 254 -119 312 -167 55 -45 63 -58 38 -58 -26 0 -138 -55 -173 -85 -33
-28 -82 -111 -82 -140 0 -25 -15 -18 -53 25 -39 42 -87 128 -88 157 -1 32 -17
-18 -18 -57 -1 -19 -4 -45 -7 -58 -6 -22 -8 -20 -30 18 -13 23 -31 66 -39 95
-20 66 -8 155 29 220 21 38 22 46 10 62 -17 23 -18 37 -1 30 6 -3 53 -22 102
-42z m405 -590 c-42 -186 -6 -432 93 -637 24 -49 40 -88 37 -88 -18 1 -122 77
-171 126 -133 130 -153 286 -62 469 27 56 104 177 109 173 2 -2 -1 -21 -6 -43z
m1179 -379 c-47 -141 -62 -244 -56 -386 3 -69 12 -149 19 -179 l13 -54 44 69
c54 83 193 225 277 282 65 44 223 126 229 120 2 -2 -20 -23 -50 -47 -79 -63
-233 -225 -290 -305 -58 -82 -164 -288 -189 -370 l-19 -59 -17 23 c-34 46
-100 189 -122 266 -28 101 -30 259 -5 354 21 80 92 229 147 310 22 33 42 60
44 60 2 0 -9 -38 -25 -84z m-3344 -1857 l70 -24 3 -102 c2 -94 1 -103 -16
-103 -12 0 -27 18 -45 55 -57 117 -205 167 -321 109 -101 -51 -156 -167 -156
-329 0 -255 141 -414 322 -361 78 22 132 65 160 126 31 68 58 69 58 3 0 -27
-3 -72 -7 -102 -6 -51 -8 -54 -50 -72 -24 -10 -80 -26 -125 -35 -285 -58 -514
106 -535 383 -18 226 104 411 308 468 81 22 244 15 334 -16z m3857 2 c72 -28
154 -101 192 -171 97 -179 66 -430 -70 -567 -118 -118 -333 -145 -499 -64
-153 76 -240 259 -215 454 24 185 141 325 307 367 64 16 221 5 285 -19z m3433
-2 l70 -24 3 -102 3 -103 -26 0 c-14 0 -25 6 -25 13 0 29 -62 109 -106 137
-133 84 -296 22 -353 -135 -59 -158 -28 -377 67 -479 57 -61 177 -85 256 -52
28 12 35 21 41 55 10 59 -4 150 -27 173 -10 10 -32 21 -47 24 -17 4 -31 14
-34 25 -5 18 3 19 169 19 167 0 174 -1 174 -20 0 -13 -7 -20 -20 -20 -11 0
-29 -9 -40 -20 -19 -19 -21 -32 -19 -148 l1 -127 -71 -22 c-102 -32 -226 -46
-304 -33 -86 13 -123 27 -185 68 -62 41 -91 76 -129 157 -26 56 -28 68 -28
190 1 112 4 138 24 188 46 116 159 221 271 252 82 22 245 15 335 -16z m-6643
0 c94 -20 163 -69 187 -132 17 -44 13 -137 -8 -182 -20 -45 -70 -92 -114 -107
-25 -9 -26 -12 -14 -27 8 -9 47 -70 87 -136 91 -149 125 -193 156 -201 15 -4
24 -13 24 -25 0 -18 -9 -19 -120 -19 l-119 0 -71 148 c-97 201 -105 212 -155
212 l-40 0 1 -127 c0 -71 4 -137 7 -149 7 -20 29 -35 69 -48 11 -3 15 -11 12
-21 -5 -13 -32 -15 -170 -15 -157 0 -164 1 -164 20 0 13 7 20 19 20 10 0 30 9
45 21 l26 20 0 328 c0 316 -1 329 -21 355 -11 14 -35 29 -52 34 -18 5 -33 16
-35 25 -3 16 14 17 197 17 110 0 224 -5 253 -11z m618 -9 c0 -13 -7 -20 -18
-20 -11 0 -26 -8 -35 -18 -23 -25 -13 -54 70 -212 61 -117 83 -149 83 -121 0
6 15 36 34 68 93 162 129 242 117 261 -3 6 -19 15 -34 21 -15 6 -27 17 -27 26
0 13 19 15 120 15 108 0 120 -2 120 -17 0 -10 -15 -25 -32 -34 -32 -15 -107
-130 -222 -338 l-46 -83 0 -143 c0 -143 0 -144 26 -164 15 -12 33 -21 40 -21
8 0 14 -9 14 -20 0 -19 -7 -20 -171 -20 -155 0 -170 2 -167 17 2 9 17 20 35
25 56 14 63 36 63 186 l0 135 -102 166 c-123 201 -163 258 -188 266 -11 4 -25
15 -30 26 -10 18 -5 19 170 19 173 0 180 -1 180 -20z m1022 -13 c95 -47 148
-123 148 -215 0 -166 -120 -262 -328 -262 l-74 0 4 -126 c3 -118 4 -127 27
-145 13 -10 34 -19 47 -19 17 0 24 -6 24 -20 0 -19 -7 -20 -170 -20 -163 0
-170 1 -170 20 0 13 7 20 20 20 11 0 29 9 40 20 19 19 20 33 20 360 0 327 -1
341 -20 360 -11 11 -29 20 -40 20 -14 0 -20 7 -20 21 0 20 3 21 218 17 214 -3
218 -4 274 -31z m901 -34 c11 -116 10 -133 -13 -133 -13 0 -25 12 -34 35 -8
19 -27 46 -42 60 -24 22 -36 25 -101 25 l-74 0 3 -336 3 -336 28 -24 c15 -13
37 -24 48 -24 12 0 19 -7 19 -20 0 -19 -7 -20 -176 -20 -159 0 -175 2 -172 17
2 9 18 21 35 25 61 16 63 29 63 393 l0 325 -74 0 c-69 0 -77 -2 -104 -30 -17
-16 -33 -43 -37 -60 -5 -23 -12 -30 -31 -30 -27 0 -28 3 -18 123 l7 77 332 0
332 0 6 -67z m1557 47 c0 -13 -7 -20 -19 -20 -11 0 -29 -12 -40 -26 -19 -24
-21 -40 -21 -185 0 -88 3 -159 8 -158 7 0 158 182 211 254 41 56 45 99 11 110
-11 3 -20 15 -20 26 0 18 8 19 145 19 138 0 145 -1 145 -20 0 -12 -7 -20 -17
-20 -10 -1 -28 -7 -41 -14 -25 -13 -292 -276 -292 -287 0 -3 37 -55 82 -115
181 -243 256 -329 296 -345 12 -5 22 -15 22 -24 0 -13 -19 -15 -120 -15 l-119
0 -33 48 c-64 93 -256 350 -268 357 -9 6 -11 -32 -8 -160 3 -161 4 -167 27
-186 13 -10 32 -19 42 -19 12 0 19 -7 19 -20 0 -19 -7 -20 -165 -20 -152 0
-165 1 -165 18 0 12 11 21 33 27 54 17 58 46 55 403 l-3 314 -24 19 c-13 10
-32 19 -42 19 -12 0 -19 7 -19 20 0 19 7 20 160 20 153 0 160 -1 160 -20z
m873 0 c-3 -11 -13 -20 -23 -20 -9 0 -25 -9 -36 -21 -18 -20 -19 -43 -22 -348
-2 -359 -1 -369 56 -386 21 -6 32 -15 32 -27 0 -17 -13 -18 -165 -18 -158 0
-165 1 -165 20 0 13 7 20 19 20 10 0 29 9 42 19 l24 19 0 342 0 342 -24 19
c-13 10 -32 19 -42 19 -12 0 -19 7 -19 20 0 19 7 20 164 20 159 0 164 -1 159
-20z m385 -52 c32 -40 136 -171 230 -290 l170 -217 7 86 c4 48 5 157 3 241 -5
133 -8 158 -25 181 -11 14 -30 27 -42 29 -13 2 -21 11 -21 23 0 18 8 19 136
19 124 0 135 -2 132 -17 -2 -10 -13 -19 -24 -21 -12 -2 -32 -14 -45 -28 l-24
-26 -5 -376 -5 -377 -37 0 c-42 0 -6 -42 -451 527 l-92 117 -3 -265 c-3 -297
0 -311 58 -330 19 -6 36 -19 38 -28 3 -14 -13 -16 -137 -16 -133 0 -141 1
-141 19 0 14 8 21 27 23 14 2 34 14 44 28 25 35 34 201 24 464 -7 201 -8 208
-32 237 -14 16 -33 29 -44 29 -12 0 -19 7 -19 20 0 19 7 20 109 20 l110 0 59
-72z m-1113 -1386 c130 -337 152 -383 183 -397 12 -5 22 -15 22 -22 0 -10 -34
-13 -140 -13 -107 0 -140 3 -140 13 0 7 14 18 30 24 38 14 38 32 3 123 l-28
71 -124 -3 -125 -3 -24 -78 c-13 -43 -21 -85 -18 -92 2 -7 18 -16 35 -20 17
-4 31 -13 31 -21 0 -11 -22 -14 -110 -14 -87 0 -110 3 -110 14 0 8 11 17 24
20 27 7 40 31 96 179 21 56 66 172 100 257 33 85 63 174 67 198 5 36 10 43 37
51 75 23 67 34 191 -287z m-3810 259 c63 -28 83 -46 106 -96 35 -77 20 -180
-33 -232 -49 -47 -101 -65 -205 -71 l-93 -5 0 -104 c0 -97 2 -106 25 -128 13
-14 31 -25 40 -25 8 0 15 -7 15 -15 0 -13 -22 -15 -140 -15 -118 0 -140 2
-140 15 0 8 7 15 15 15 8 0 24 9 35 20 19 19 20 33 20 294 0 152 -4 286 -10
300 -5 14 -20 28 -35 32 -16 4 -25 13 -25 26 0 20 4 21 188 16 165 -4 193 -7
237 -27z m765 11 c0 -10 -12 -22 -31 -29 l-30 -12 3 -249 3 -249 29 -37 c16
-21 44 -44 62 -52 64 -27 160 -13 213 32 45 38 54 96 50 330 -4 214 -7 226
-56 245 -13 5 -23 15 -23 24 0 13 19 15 115 15 106 0 115 -1 115 -19 0 -12 -9
-21 -25 -25 -13 -3 -28 -14 -33 -24 -5 -9 -12 -118 -15 -242 -3 -124 -11 -242
-17 -263 -26 -89 -111 -146 -229 -154 -149 -10 -253 34 -298 127 -20 41 -22
64 -26 280 -2 129 -7 243 -12 253 -4 9 -18 20 -31 23 -15 4 -24 13 -24 25 0
18 9 19 130 19 118 0 130 -2 130 -18z m1191 -208 c107 -124 201 -234 211 -245
9 -10 20 -19 24 -19 12 0 -2 394 -15 418 -6 12 -23 25 -36 28 -16 4 -25 13
-25 25 0 18 9 19 115 19 108 0 115 -1 115 -20 0 -11 -6 -20 -14 -20 -8 0 -24
-9 -37 -19 l-24 -19 -5 -324 c-5 -323 -5 -323 -27 -324 -27 -1 -28 -1 -89 71
-28 33 -118 139 -200 235 -82 96 -164 193 -182 215 l-33 40 3 -235 c3 -251 8
-274 53 -286 14 -3 25 -13 25 -23 0 -14 -14 -16 -115 -13 -123 3 -143 14 -82
42 18 9 34 25 38 40 9 32 9 505 0 545 -4 21 -16 35 -38 45 -18 8 -33 23 -33
33 0 15 11 17 89 17 l88 0 194 -226z m1039 211 c0 -9 -11 -20 -24 -25 -13 -5
-28 -15 -33 -22 -4 -7 -10 -161 -13 -343 -5 -314 -6 -332 -27 -370 -43 -81
-116 -131 -202 -140 -48 -4 -51 -3 -51 19 0 18 7 25 28 29 36 7 80 51 103 102
17 36 19 71 19 364 0 288 -2 326 -17 343 -9 10 -22 18 -30 18 -7 0 -13 9 -13
20 0 19 7 20 130 20 110 0 130 -2 130 -15z m1775 -9 c96 -30 144 -112 116
-199 -14 -40 -69 -94 -113 -109 l-30 -11 54 -18 c67 -23 128 -84 129 -131 3
-85 -11 -120 -68 -167 -65 -53 -105 -61 -320 -61 -106 0 -193 3 -193 6 0 3 14
19 30 34 l30 28 0 282 c0 179 -4 289 -11 301 -5 11 -21 24 -35 29 -13 5 -24
17 -24 26 0 15 17 16 193 11 130 -4 208 -10 242 -21z"/>
<path d="M3866 7160 c-8 -42 19 -105 56 -128 l30 -20 -56 -41 c-56 -42 -100
-101 -74 -101 7 0 42 14 77 31 34 17 89 35 122 39 32 5 68 15 81 24 12 9 34
16 48 16 33 0 52 13 45 31 -4 10 7 18 32 26 21 6 56 20 78 29 l40 17 -110 28
c-125 31 -197 36 -239 14 -26 -14 -32 -14 -60 3 -17 10 -35 28 -41 40 -13 30
-21 28 -29 -8z"/>
<path d="M5991 7010 c-466 -65 -805 -504 -752 -972 21 -185 97 -355 219 -488
196 -215 457 -318 732 -289 358 37 654 295 751 654 26 96 32 313 10 410 -57
260 -235 486 -480 610 -120 60 -339 94 -480 75z m9 -330 l0 -90 55 0 55 0 0
91 0 90 53 -3 52 -3 3 -85 c3 -89 8 -100 53 -100 82 0 198 -71 225 -137 18
-42 18 -124 0 -166 -7 -18 -28 -45 -46 -60 -18 -15 -31 -29 -29 -31 2 -2 22
-13 44 -24 79 -40 115 -103 115 -203 0 -85 -18 -137 -62 -181 -62 -62 -158
-98 -258 -98 l-40 0 0 -95 0 -95 -55 0 -55 0 0 95 0 95 -55 0 -55 0 0 -95 0
-95 -55 0 -55 0 0 95 0 95 -120 0 -120 0 0 70 0 70 58 0 c32 0 63 5 70 12 9 9
12 88 12 293 0 330 1 325 -86 325 l-54 0 0 70 0 70 120 0 120 0 0 90 0 90 55
0 55 0 0 -90z"/>
<path d="M6000 6330 l0 -120 90 0 c106 0 152 15 174 59 33 63 14 131 -46 162
-28 15 -58 19 -128 19 l-90 0 0 -120z"/>
<path d="M6000 5949 l0 -131 118 4 c86 3 126 8 149 21 61 33 81 113 43 175
-30 49 -72 62 -200 62 l-110 0 0 -131z"/>
<path d="M5364 3191 c-89 -40 -135 -141 -142 -311 -7 -186 37 -313 132 -377
41 -28 57 -33 108 -33 73 0 118 20 161 71 112 130 105 480 -11 602 -63 67
-164 86 -248 48z"/>
<path d="M2240 3189 c0 -2 -1 -80 -1 -174 l-1 -170 60 1 c109 2 167 64 166
175 -1 103 -54 156 -164 166 -33 3 -60 4 -60 2z"/>
<path d="M3810 3006 l0 -185 33 -3 c47 -4 102 7 133 26 58 39 87 182 51 252
-30 59 -94 93 -174 94 l-43 0 0 -184z"/>
<path d="M6466 1930 c-3 -8 -26 -72 -51 -142 l-45 -128 100 0 c55 0 100 3 100
8 -1 25 -99 274 -104 262z"/>
<path d="M2630 1878 c0 -152 1 -156 22 -161 33 -9 110 11 135 35 33 31 57 101
50 148 -11 81 -55 119 -147 127 l-60 6 0 -155z"/>
<path d="M7390 1896 l0 -136 60 0 c36 0 74 7 91 15 40 21 69 71 69 120 0 83
-44 120 -153 131 l-67 7 0 -137z"/>
<path d="M7390 1591 c0 -60 5 -122 10 -136 10 -27 11 -27 96 -24 82 4 87 5
115 37 24 26 29 41 29 81 0 96 -67 151 -182 151 l-68 0 0 -109z"/>
</g>
</svg>
